<svg width="48" height="48" viewBox="0 0 48 48" fill="none" xmlns="http://www.w3.org/2000/svg">
<path d="M6 23.9997C6 23.1535 6.62465 22.4544 7.43119 22.3519L7.63636 22.339L40.3636 22.339C41.0269 22.339 41.6225 22.7442 41.8756 23.3664C41.9585 23.5701 42 23.7849 42 23.9997C42 24.3595 41.8848 24.7162 41.6634 25.0084L41.5178 25.1754L28.3178 38.5165C27.6785 39.163 26.6422 39.1608 26.0051 38.512C25.4211 37.9153 25.3724 36.9818 25.8625 36.3323L26.0095 36.1627L36.4015 25.6604L7.63636 25.6604C6.73309 25.6604 6 24.9164 6 23.9997ZM26.0092 11.8373C25.3678 11.1908 25.3678 10.139 26.0049 9.48797C26.5889 8.89326 27.5084 8.84184 28.1517 9.33542L28.3198 9.48355L35.5983 16.8416C35.9212 17.1671 36.0805 17.5922 36.0805 18.0196C36.0805 18.4425 35.9212 18.8654 35.6027 19.1909C35.0187 19.7877 34.101 19.8393 33.4581 19.344L33.29 19.1954L26.0092 11.8373Z" fill="black"/>
</svg>
