<svg width="21" height="21" viewBox="0 0 21 21" fill="none" xmlns="http://www.w3.org/2000/svg">
<path d="M19.6602 18.3904C20.2793 18.3904 20.7827 18.9004 20.7827 19.5275C20.7827 20.1557 20.2793 20.6646 19.6602 20.6646H13.3157C12.6967 20.6646 12.1932 20.1557 12.1932 19.5275C12.1932 18.9004 12.6967 18.3904 13.3157 18.3904H19.6602ZM15.2603 1.44129L16.8992 2.7432C17.5713 3.26874 18.0193 3.9615 18.1726 4.6901C18.3495 5.49155 18.1608 6.27867 17.6303 6.95948L7.8676 19.5844C7.41956 20.1578 6.75928 20.4803 6.05184 20.4922L2.16093 20.54C1.9487 20.54 1.77184 20.3966 1.72468 20.1936L0.84038 16.3595C0.687101 15.6548 0.84038 14.9262 1.28842 14.3649L8.20953 5.40674C8.32744 5.26341 8.53967 5.24072 8.68116 5.34702L11.5934 7.66419C11.7821 7.81946 12.0415 7.90307 12.3127 7.86724C12.8904 7.79557 13.2795 7.27003 13.2206 6.70866C13.1852 6.422 13.0437 6.18311 12.855 6.00395C12.7961 5.95617 10.0253 3.73456 10.0253 3.73456C9.84843 3.59123 9.81306 3.32846 9.95455 3.1505L11.0511 1.72795C12.0651 0.426036 13.8337 0.306595 15.2603 1.44129Z" fill="black"/>
</svg>
