<svg width="48" height="48" viewBox="0 0 48 48" fill="none" xmlns="http://www.w3.org/2000/svg">
<path d="M31.506 4C39.18 4 44 8.784 44 16.506V21.644C44 22.478 43.322 23.156 42.488 23.156H42.47V23.12C41.626 23.12 40.942 22.438 40.94 21.594V16.506C40.94 10.4 37.6 7.06 31.512 7.06H16.512C10.42 7.06 7.06 10.42 7.06 16.506V31.506C7.06 37.574 10.42 40.934 16.506 40.934H31.506C37.592 40.934 40.934 37.574 40.934 31.506C40.934 30.662 41.618 29.976 42.464 29.976C43.31 29.976 43.994 30.662 43.994 31.506C44 39.216 39.216 44 31.512 44H16.506C8.784 44 4 39.216 4 31.512V16.512C4 8.784 8.784 4 16.506 4H31.506ZM30.0592 18.193C30.6452 17.607 31.5952 17.607 32.1812 18.193C32.7672 18.779 32.7672 19.729 32.1812 20.315L22.6872 29.809C22.4052 30.089 22.0232 30.247 21.6272 30.247C21.2272 30.247 20.8472 30.089 20.5652 29.809L15.8192 25.061C15.2332 24.475 15.2332 23.525 15.8192 22.939C16.4052 22.353 17.3552 22.353 17.9412 22.939L21.6272 26.627L30.0592 18.193Z" fill="black"/>
</svg>
