<svg width="50" height="50" viewBox="0 0 50 50" fill="none" xmlns="http://www.w3.org/2000/svg">
<circle cx="25" cy="25" r="25" fill="url(#paint0_linear_1114_31)"/>
<path d="M25.992 28.744H23.64C23.544 28.104 23.456 27.344 23.376 26.464C23.296 25.568 23.232 24.608 23.184 23.584C23.136 22.56 23.112 21.528 23.112 20.488V16.456H26.568V20.488C26.568 21.544 26.544 22.592 26.496 23.632C26.448 24.656 26.376 25.616 26.28 26.512C26.2 27.392 26.104 28.136 25.992 28.744ZM24.84 34.312C24.296 34.312 23.832 34.128 23.448 33.76C23.064 33.376 22.872 32.928 22.872 32.416C22.872 31.872 23.064 31.416 23.448 31.048C23.832 30.68 24.296 30.496 24.84 30.496C25.352 30.496 25.8 30.68 26.184 31.048C26.568 31.416 26.76 31.872 26.76 32.416C26.76 32.928 26.568 33.376 26.184 33.76C25.8 34.128 25.352 34.312 24.84 34.312Z" fill="white"/>
<defs>
<linearGradient id="paint0_linear_1114_31" x1="0" y1="0" x2="50" y2="50" gradientUnits="userSpaceOnUse">
<stop stop-color="#D1DE0B"/>
<stop offset="1" stop-color="#01784A"/>
</linearGradient>
</defs>
</svg>
